<svg width="65" height="61" viewBox="0 0 65 61" fill="none" xmlns="http://www.w3.org/2000/svg">
<path d="M28.5841 32.1702L3.30125 20.8187C2.56899 20.49 1.73851 21.0145 1.72068 21.8169L1.21286 44.6688C1.20345 45.0924 1.43352 45.4851 1.8076 45.684L27.9965 59.6079C28.7504 60.0087 29.6578 59.4537 29.6444 58.6001L29.2461 33.1758C29.2393 32.7405 28.9812 32.3485 28.5841 32.1702Z" fill="#0961F5"/>
<path d="M35.4931 32.1702L60.7759 20.8187C61.5082 20.49 62.3386 21.0145 62.3565 21.8169L62.8643 44.6688C62.8737 45.0924 62.6436 45.4851 62.2696 45.684L36.0806 59.6079C35.3268 60.0087 34.4194 59.4537 34.4328 58.6001L34.8311 33.1758C34.8379 32.7405 35.096 32.3485 35.4931 32.1702Z" fill="#FFA800"/>
<path d="M31.5524 0.207221C31.8376 0.0751777 32.1652 0.0688954 32.4553 0.189904L61.927 12.4837C62.8401 12.8646 62.8485 14.1553 61.9405 14.5481L32.4356 27.3116C32.1572 27.432 31.8418 27.4345 31.5614 27.3185L3.00154 15.4975C2.09849 15.1237 2.07238 13.8541 2.95931 13.4435L31.5524 0.207221Z" fill="#242424"/>
</svg>
